<svg width="29" height="32" viewBox="0 0 39 38" fill="none" xmlns="http://www.w3.org/2000/svg">
  <g clip-path="url(#clip0_454_1847)">
    <path d="M19.5 0.791687C14.5438 0.791687 9.79053 2.71006 6.28594 6.12478C2.78136 9.53951 0.812501 14.1709 0.812501 19C0.80474 23.1926 2.24204 27.2663 4.89397 30.568C7.54589 33.8697 11.2588 36.2081 15.4375 37.2084V32.4584H13.8125C9.555 32.4584 8.06 26.125 5.6875 26.125C10.2213 26.125 11.0988 29.2917 13.8125 29.2917C14.0328 29.3204 14.257 29.2992 14.4676 29.2297C14.6781 29.1603 14.8694 29.0445 15.0266 28.8914C15.1838 28.7382 15.3027 28.5518 15.3739 28.3466C15.4452 28.1415 15.4669 27.923 15.4375 27.7084V27.1542C10.7088 25.8559 7.3125 22.4042 7.3125 18.2084C7.35053 16.0255 8.26669 13.9446 9.86375 12.4134C9.45667 11.5574 9.30626 10.6066 9.4299 9.67094C9.55354 8.73523 9.94617 7.85264 10.5625 7.12502C12.0491 7.55986 13.3861 8.3809 14.43 9.50002C17.7053 8.34101 21.2947 8.34101 24.57 9.50002C25.6139 8.3809 26.9509 7.55986 28.4375 7.12502C29.0538 7.85264 29.4465 8.73523 29.5701 9.67094C29.6937 10.6066 29.5433 11.5574 29.1363 12.4134C30.7333 13.9446 31.6495 16.0255 31.6875 18.2084C31.6875 22.5467 27.9663 26.125 22.88 27.3284C23.404 28.4377 23.6384 29.6561 23.5625 30.875V37.2084C27.7412 36.2081 31.4541 33.8697 34.106 30.568C36.758 27.2663 38.1953 23.1926 38.1875 19C38.1875 14.1709 36.2186 9.53951 32.7141 6.12478C29.2095 2.71006 24.4562 0.791687 19.5 0.791687V0.791687Z" stroke="#AD59D4" stroke-linecap="round" stroke-linejoin="round" />
  </g>
  <defs>
    <clipPath id="clip0_454_1847">
      <rect width="39" height="38" fill="white" />
    </clipPath>
  </defs>
</svg> 