<svg width="29" height="32" viewBox="0 0 35 35" fill="none" xmlns="http://www.w3.org/2000/svg">
  <path d="M4.3 7.6C6.12254 7.6 7.6 6.12254 7.6 4.3C7.6 2.47746 6.12254 1 4.3 1C2.47746 1 1 2.47746 1 4.3C1 6.12254 2.47746 7.6 4.3 7.6Z" stroke="#0F0AE1" stroke-width="2" stroke-linecap="round" stroke-linejoin="round" />
  <path d="M1 12.55H7.6V34H1V12.55Z" stroke="#0F0AE1" stroke-width="2" stroke-linecap="round" stroke-linejoin="round" />
  <path d="M14.2 34H20.8V22.45C20.8 20.6274 22.2774 19.15 24.1 19.15C25.9226 19.15 27.4 20.6274 27.4 22.45V34H34V22.45C34 16.9824 29.5676 12.55 24.1 12.55C18.6324 12.55 14.2 16.9824 14.2 22.45V34Z" stroke="#0F0AE1" stroke-width="2" stroke-linecap="round" stroke-linejoin="round" />
</svg>